<?xml version="1.0" encoding="UTF-8" standalone="no"?>
<!-- Created with Inkscape (http://www.inkscape.org/) -->
<svg
   xmlns:dc="http://purl.org/dc/elements/1.1/"
   xmlns:cc="http://creativecommons.org/ns#"
   xmlns:rdf="http://www.w3.org/1999/02/22-rdf-syntax-ns#"
   xmlns:svg="http://www.w3.org/2000/svg"
   xmlns="http://www.w3.org/2000/svg"
   xmlns:sodipodi="http://sodipodi.sourceforge.net/DTD/sodipodi-0.dtd"
   xmlns:inkscape="http://www.inkscape.org/namespaces/inkscape"
   width="32px"
   height="32px"
   id="svg2383"
   sodipodi:version="0.32"
   inkscape:version="0.46"
   sodipodi:docname="background-color.svg"
   inkscape:output_extension="org.inkscape.output.svg.inkscape">
  <defs
     id="defs2385">
    <inkscape:perspective
       sodipodi:type="inkscape:persp3d"
       inkscape:vp_x="0 : 16 : 1"
       inkscape:vp_y="0 : 1000 : 0"
       inkscape:vp_z="32 : 16 : 1"
       inkscape:persp3d-origin="16 : 10.666667 : 1"
       id="perspective2391" />
  </defs>
  <sodipodi:namedview
     id="base"
     pagecolor="#ffffff"
     bordercolor="#666666"
     borderopacity="1.0"
     inkscape:pageopacity="0.0"
     inkscape:pageshadow="2"
     inkscape:zoom="11.197802"
     inkscape:cx="1.3643962"
     inkscape:cy="11.830456"
     inkscape:current-layer="layer1"
     showgrid="true"
     inkscape:grid-bbox="true"
     inkscape:document-units="px"
     inkscape:window-width="1279"
     inkscape:window-height="723"
     inkscape:window-x="1"
     inkscape:window-y="54" />
  <metadata
     id="metadata2388">
    <rdf:RDF>
      <cc:Work
         rdf:about="">
        <dc:format>image/svg+xml</dc:format>
        <dc:type
           rdf:resource="http://purl.org/dc/dcmitype/StillImage" />
      </cc:Work>
    </rdf:RDF>
  </metadata>
  <g
     id="layer1"
     inkscape:label="Layer 1"
     inkscape:groupmode="layer">
    <rect
       style="fill:#ffff00;stroke:#ffff00"
       id="rect2397"
       width="17.771345"
       height="10.894996"
       x="0.53582001"
       y="1.1903836" />
    <text
       id="text3169"
       y="11.460257"
       x="0.89303207"
       style="font-size:28px;font-style:normal;font-weight:normal;fill:#000000;fill-opacity:1;stroke:none;stroke-width:1px;stroke-linecap:butt;stroke-linejoin:miter;stroke-opacity:1;font-family:Bitstream Vera Sans"
       xml:space="preserve"><tspan
         style="font-size:12px;font-style:normal;font-variant:normal;font-weight:300;font-stretch:normal;font-family:Purisa;-inkscape-font-specification:Purisa Light"
         y="11.460257"
         x="0.89303207"
         id="tspan3171"
         sodipodi:role="line">AB</tspan></text>
    <path
       style="opacity:1;fill:#ffff00;stroke:#000000;stroke-width:1.62863374"
       id="path3183"
       d="M 15.229085,15.836004 C 14.858632,15.788032 14.337494,15.726525 14.0299,15.966382 C 13.683694,16.241947 13.464056,16.602435 13.207015,16.936788 C 13.008026,17.18729 12.879787,17.463913 12.76376,17.748655 C 12.663705,18.088139 12.679723,18.441047 12.686531,18.788287 C 12.736247,19.083605 12.844273,19.377764 13.023719,19.633672 C 13.189794,19.8478 13.326241,20.076357 13.470131,20.301847 C 13.644472,20.548612 13.83768,20.7838 14.049277,21.007926 C 14.257094,21.226932 14.48512,21.434845 14.650275,21.681134 C 14.813615,21.8727 14.958585,22.074245 15.109161,22.273106 C 15.257127,22.484962 15.437821,22.678358 15.57785,22.894721 C 15.747305,23.154407 15.903636,23.421712 16.047042,23.693091 C 16.06497,23.739082 16.079615,23.786133 16.100828,23.831065 C 16.135176,23.903825 16.185783,23.970262 16.220466,24.042905 C 16.269071,24.144709 16.285151,24.249913 16.333142,24.351923 C 16.533149,24.706347 16.305154,24.783663 15.891305,24.817345 C 15.338959,24.826713 14.786524,24.805527 14.234215,24.797851 C 13.835501,24.837049 13.460925,24.728927 13.073178,24.678594 C 12.640138,24.639922 12.203553,24.651632 11.768944,24.65611 C 11.540256,24.674992 11.305173,24.640575 11.076942,24.661248 C 10.964151,24.671465 10.855027,24.701853 10.744208,24.72272 C 10.454931,24.803407 10.223571,24.967806 9.9775288,25.115718 C 9.6944886,25.315896 9.5255342,25.575611 9.3797317,25.858314 C 9.257725,26.118383 9.2081103,26.401246 9.2731834,26.676935 C 9.3534683,27.049044 9.6702955,27.240533 10.020563,27.423529 C 10.457089,27.618358 10.934834,27.719324 11.404292,27.834152 C 11.988637,27.986641 12.601402,27.985227 13.20562,27.983445 C 13.910578,27.974489 14.61556,27.968428 15.32059,27.96643 C 15.828192,27.965585 16.335795,27.966139 16.843398,27.966621 C 17.287645,27.998525 17.715102,27.938451 18.150248,27.873988 C 18.645774,27.847606 19.133806,27.79116 19.625302,27.732095 C 20.150325,27.674906 20.681014,27.686619 21.208955,27.690003 C 21.583827,27.695958 21.949581,27.71886 22.313408,27.634613 C 22.683251,27.571061 23.054554,27.512164 23.427484,27.459561 C 23.757643,27.367939 24.10131,27.329705 24.42157,27.215606 C 24.613944,27.165974 24.817748,27.053297 25.024387,26.950228 C 25.007712,26.951419 24.965971,26.966342 24.974361,26.953803 C 24.984847,26.938127 25.33009,26.654549 25.372239,26.620739 C 25.598698,26.442584 25.651512,26.20611 25.734149,25.964997 C 25.846063,25.677863 25.87231,25.431431 25.78902,25.138505 C 25.695265,24.927463 25.491831,24.800985 25.316286,24.647147 C 25.141537,24.489903 24.939779,24.39622 24.706933,24.315427 C 24.490044,24.178612 24.231393,24.129865 23.988351,24.04181 C 23.735487,24.000491 23.494204,23.942617 23.246272,23.882124 C 22.943844,23.85852 22.652789,23.804791 22.356054,23.749585 C 22.037762,23.70798 21.723992,23.711063 21.410312,23.645618 C 21.09091,23.60446 20.791141,23.501389 20.473488,23.453211 C 20.162749,23.41991 19.848776,23.433271 19.536624,23.438485 C 19.224053,23.44369 18.911412,23.443534 18.598797,23.443353 C 18.286222,23.442959 17.973648,23.442776 17.661075,23.442726 C 17.253806,23.44992 17.179214,23.477255 17.027944,23.141814 C 16.967153,22.887857 16.900696,22.64106 16.820161,22.391087 C 16.725009,22.108877 16.847535,21.872233 17.042076,21.647002 C 17.226697,21.430568 17.400798,21.213037 17.59924,21.006212 C 17.848447,20.774407 18.06367,20.521275 18.285029,20.269921 C 18.455066,20.05091 18.572374,19.808076 18.69073,19.566426 C 18.817397,19.317677 18.826144,19.048144 18.826456,18.781126 C 18.820147,18.508733 18.814165,18.236363 18.812385,17.963915 C 18.845105,17.6839 18.78001,17.423502 18.707536,17.153642 C 18.674944,16.876931 18.568407,16.61468 18.515358,16.341171 C 18.441526,16.133138 18.338684,15.944253 18.199086,15.763922 C 18.047998,15.536444 17.857987,15.327826 17.657927,15.130664 C 17.429699,14.930952 17.184429,14.740774 16.928979,14.567059 C 16.775563,14.372524 16.535281,14.388577 16.303291,14.328953 C 16.051036,14.256809 15.776251,14.203034 15.514266,14.258126 C 15.362931,14.28391 15.239283,14.460772 15.092128,14.627531 C 14.937155,14.871227 14.735518,15.095615 14.60565,15.35029 C 14.494877,15.523502 14.377259,15.697742 14.296939,15.883714 C 14.205498,16.066428 14.040548,16.19713 13.890093,16.341403 C 13.780474,16.426892 13.670385,16.512595 13.570828,16.607041 L 13.428503,16.658884 C 13.526109,16.562889 13.637053,16.477586 13.747791,16.393286 C 13.895232,16.247926 14.06455,16.121922 14.157112,15.940153 C 14.234589,15.75307 14.35357,15.57848 14.465698,15.405909 C 14.592633,15.149182 14.79911,14.926245 14.951084,14.680039 C 15.140372,14.465511 15.311512,14.249357 15.636898,14.177292 C 15.902444,14.128891 16.176139,14.18003 16.430544,14.253546 C 16.665039,14.311109 16.904626,14.302063 17.059561,14.495931 C 17.314463,14.671499 17.560507,14.861446 17.788953,15.06212 C 17.98977,15.259537 18.180526,15.468342 18.331957,15.696439 C 18.473223,15.878185 18.57648,16.068967 18.651038,16.278833 C 18.703357,16.552262 18.810891,16.813989 18.84273,17.090579 C 18.915285,17.361369 18.982729,17.622374 18.949229,17.903448 C 18.950937,18.175925 18.956732,18.448325 18.963305,18.720744 C 18.963461,18.989016 18.956175,19.260267 18.830567,19.510754 C 18.710494,19.752844 18.595727,19.997245 18.425515,20.217617 C 18.20383,20.468603 17.990748,20.722966 17.74076,20.954091 C 17.543195,21.16155 17.36598,21.376644 17.183144,21.594457 C 16.986661,21.814169 16.862504,22.048342 16.955492,22.327306 C 17.035464,22.576991 17.102586,22.823207 17.162313,23.076941 C 17.316805,23.417429 17.373026,23.365584 17.785364,23.364526 C 18.097938,23.364581 18.410515,23.364778 18.723089,23.365157 C 19.035646,23.36531 19.348226,23.365372 19.660737,23.360076 C 19.97348,23.354867 20.288174,23.34176 20.599312,23.376934 C 20.91662,23.426538 21.217282,23.52827 21.536622,23.570003 C 21.850049,23.6345 22.164818,23.62915 22.482149,23.673739 C 22.779057,23.729461 23.071374,23.779638 23.373434,23.806677 C 23.621452,23.868159 23.864583,23.922287 24.116642,23.967635 C 24.359346,24.055764 24.617651,24.105272 24.834678,24.241351 C 25.068704,24.32349 25.272254,24.418618 25.447967,24.577332 C 25.626079,24.732418 25.829426,24.862131 25.924085,25.075287 C 26.011356,25.379305 25.985738,25.609381 25.872872,25.908116 C 25.788835,26.149899 25.740823,26.389225 25.515163,26.570152 C 25.312206,26.727218 25.154059,26.922724 24.904372,27.034308 C 25.044847,26.960549 24.742162,27.119563 24.712885,27.133185 C 24.678963,27.148967 24.641617,27.158466 24.605981,27.171106 C 24.61829,27.164724 24.655355,27.145791 24.642905,27.151961 C 24.567093,27.189527 24.494228,27.231841 24.415893,27.265297 C 24.379556,27.280817 24.338928,27.287246 24.300446,27.298219 C 23.980029,27.410863 23.635381,27.448259 23.305629,27.538883 C 22.93281,27.592094 22.560966,27.650173 22.191459,27.71559 C 21.827387,27.797753 21.46045,27.772007 21.086248,27.767087 C 20.558584,27.763507 20.028205,27.753045 19.503561,27.810951 C 19.012092,27.870633 18.523508,27.924025 18.028324,27.953473 C 17.592864,28.018104 17.164391,28.074994 16.720033,28.044228 C 16.21295,28.043924 15.705866,28.042366 15.198781,28.043122 C 14.493708,28.04493 13.788687,28.05094 13.083691,28.060218 C 12.478337,28.061961 11.864623,28.061688 11.279473,27.908246 C 10.808541,27.793815 10.32937,27.692128 9.8925467,27.495212 C 9.5394404,27.310115 9.21996,27.114414 9.1378114,26.739725 C 9.0702496,26.462075 9.1187635,26.176355 9.2403222,25.913572 C 9.386844,25.629597 9.5523699,25.367671 9.8349954,25.164296 C 10.162201,24.966801 10.483865,24.754586 10.866136,24.642494 C 11.206765,24.578394 11.543361,24.570002 11.892333,24.578286 C 12.327573,24.574176 12.764884,24.562224 13.198431,24.60225 C 13.585139,24.653516 13.959362,24.758757 14.357084,24.720804 C 14.909311,24.728701 15.461781,24.750988 16.01402,24.738463 C 16.081295,24.731997 16.148291,24.715391 16.215846,24.719069 C 16.227495,24.719704 16.203543,24.754283 16.213723,24.749339 C 16.35754,24.679487 16.237521,24.505267 16.198468,24.417155 C 16.150439,24.315242 16.134753,24.210443 16.086447,24.108718 C 16.051685,24.035511 16.000902,23.968514 15.966443,23.8952 C 15.945506,23.850654 15.931182,23.803988 15.913553,23.758382 C 15.7706,23.487238 15.614148,23.220349 15.444602,22.961152 C 15.304712,22.74515 15.124109,22.551925 14.976178,22.340471 C 14.825558,22.141343 14.680235,21.939754 14.517171,21.747724 C 14.352567,21.502129 14.125043,21.294452 13.917662,21.076224 C 13.705226,20.851642 13.512371,20.615287 13.337214,20.368028 C 13.193102,20.142829 13.056347,19.914633 12.890471,19.70061 C 12.710737,19.442167 12.601626,19.146105 12.55047,18.848574 C 12.543825,18.500052 12.527395,18.146256 12.624706,17.804975 C 12.740108,17.519062 12.868146,17.241425 13.06707,16.989802 C 13.325877,16.655344 13.545023,16.294231 13.887799,16.014515 C 14.427032,15.721872 14.715112,15.65453 15.355165,15.759922 L 15.229085,15.836004 z" />
    <path
       style="opacity:1;fill:#ffff00;stroke:#000000;stroke-width:1.29127848"
       id="path3185"
       d="M 18.060524,15.055277 C 18.469248,14.956437 18.877188,14.853658 19.288197,14.763594 C 19.4266,14.694587 19.835422,14.657073 19.905756,14.519669 C 20.515046,14.228209 21.064263,13.842145 21.598749,13.440512 C 21.868482,13.223581 22.122246,12.988129 22.372644,12.751489 C 22.59329,12.564813 22.828741,12.394653 23.049835,12.209088 C 23.235883,12.074595 23.419474,11.937934 23.608373,11.807499 C 23.839567,11.643361 24.015479,11.531286 24.29794,11.61384 C 24.543284,11.677945 24.780391,11.765024 25.019782,11.847321 C 25.295254,11.963807 25.549298,12.121093 25.778737,12.307249 C 25.999287,12.456809 26.18517,12.654063 26.342219,12.863709 C 26.514515,13.061168 26.66852,13.272953 26.826558,13.481096 C 26.98614,13.729225 27.139772,13.980339 27.292448,14.232323 C 27.447668,14.387444 27.531247,14.57999 27.63524,14.764443 C 27.727415,14.95125 27.803481,15.144477 27.841204,15.348468 C 27.863268,15.583627 27.936902,15.811094 28.017109,16.033211 C 28.069705,16.259128 28.119211,16.484595 28.171389,16.711111 C 28.216265,16.934634 28.209551,17.16302 28.206053,17.389413 C 28.201357,17.615142 28.200389,17.840911 28.200191,18.066675 C 28.213541,18.225265 28.177222,18.32398 28.025118,18.39659 C 27.789147,18.509239 27.847502,18.486111 27.629676,18.523546 C 27.299022,18.584983 26.973986,18.672135 26.642608,18.729033 C 26.288662,18.747487 25.947484,18.810865 25.609093,18.909526 C 25.302379,18.974764 24.992358,18.997928 24.692246,19.091161 C 24.350269,19.212381 23.999987,19.309973 23.657071,19.428559 C 23.377053,19.503165 23.131525,19.657786 22.858709,19.748424 C 22.610747,19.857101 22.341271,19.904265 22.086725,19.995598 C 21.81866,20.085785 21.570174,20.219406 21.31254,20.33302 C 21.064562,20.463579 20.826836,20.612576 20.608221,20.785801 C 20.361078,20.958662 20.102191,21.1317 19.809052,21.223454 C 19.594842,21.28051 19.418729,21.410759 19.203141,21.460801 C 19.168565,21.472377 19.134184,21.484502 19.099413,21.49553 C 18.991822,21.529652 18.910626,21.577862 18.809322,21.624097 C 18.772369,21.640963 18.669914,21.676633 18.741114,21.651631 C 18.715811,21.665774 18.690507,21.679916 18.665203,21.694057 L 18.556632,21.734015 C 18.582004,21.720012 18.607377,21.706009 18.632748,21.692005 C 18.842731,21.571419 19.059373,21.459125 19.295365,21.393218 C 19.509056,21.340255 19.686559,21.211255 19.900423,21.155438 C 19.944449,21.141146 19.992945,21.138522 20.034398,21.118369 C 20.200517,21.037607 20.35153,20.931978 20.501451,20.82708 C 20.777603,20.606317 21.087809,20.429613 21.402718,20.264342 C 21.660175,20.15034 21.909012,20.017075 22.177434,19.927599 C 22.432641,19.837752 22.701613,19.788275 22.949994,19.680235 C 23.221462,19.587486 23.467906,19.43574 23.747346,19.36103 C 24.09083,19.243396 24.440735,19.143983 24.783223,19.023596 C 25.083785,18.932515 25.393885,18.909034 25.700076,18.842173 C 26.038718,18.744128 26.380641,18.683293 26.734278,18.66277 C 27.06543,18.604534 27.39075,18.518703 27.721416,18.457183 C 27.776268,18.447154 27.830471,18.432975 27.885975,18.427094 C 27.896777,18.425949 27.906867,18.44001 27.917079,18.436452 C 28.075538,18.381254 28.108631,18.26579 28.097014,18.117044 C 28.09719,17.891232 28.098091,17.665416 28.102802,17.439641 C 28.106376,17.214036 28.113513,16.986439 28.069421,16.763596 C 28.017605,16.537391 27.967187,16.312592 27.915858,16.086792 C 27.835493,15.864186 27.760906,15.636252 27.738966,15.400555 C 27.702002,15.197518 27.6259,15.005719 27.534513,14.819799 C 27.430887,14.635245 27.346839,14.443302 27.192471,14.287661 C 27.04027,14.035859 26.886841,13.785078 26.727734,13.537123 C 26.569311,13.329168 26.41417,13.118218 26.242828,12.919966 C 26.086261,12.711038 25.900308,12.515364 25.681024,12.365715 C 25.452211,12.180841 25.199039,12.024135 24.924332,11.909072 C 24.685035,11.826555 24.447312,11.740896 24.20198,11.676667 C 24.023901,11.62709 23.854973,11.650579 23.716282,11.766652 C 23.526264,11.89564 23.344605,12.034832 23.156847,12.167367 C 22.937127,12.354011 22.700359,12.522693 22.479686,12.709048 C 22.230085,12.947795 21.972064,13.181154 21.703172,13.400466 C 21.170817,13.800671 20.620734,14.189505 20.013004,14.478777 C 19.933754,14.529972 19.793021,14.628682 19.691971,14.674388 C 19.534956,14.745409 19.35636,14.765078 19.196773,14.830311 C 18.785527,14.920731 18.377009,15.022582 17.968182,15.122276 L 18.060524,15.055277 z" />
    <path
       style="opacity:1;fill:#ffff00;stroke:#000000"
       id="path3187"
       d="M 24.106545,14.78599 C 24.216905,14.544632 24.227146,14.279649 24.27942,14.024798 C 24.330181,13.851994 24.344527,13.67448 24.34648,13.495455 C 24.325827,13.312299 24.385847,13.139503 24.416833,12.961527 C 24.443591,12.7587 24.43578,12.553303 24.433149,12.349282 C 24.429718,12.110428 24.429895,11.87154 24.430006,11.632666 C 24.430071,11.416962 24.430015,11.201259 24.42999,10.985555 C 24.422282,10.810515 24.378563,10.630653 24.326398,10.462853 C 24.27271,10.274597 24.163325,10.110125 24.097191,9.9268237 C 24.041212,9.7922517 23.956193,9.6901147 23.842238,9.6021067 C 23.717279,9.5213417 23.587558,9.4525897 23.456424,9.3823987 C 23.303883,9.3207437 23.135957,9.3327217 22.9748,9.3360327 C 22.807105,9.3666847 22.721376,9.4602517 22.617496,9.5871887 C 22.514226,9.7109707 22.40266,9.8292987 22.321897,9.9697017 C 22.232947,10.084417 22.175343,10.217307 22.098078,10.339993 C 21.990324,10.488532 21.955379,10.663658 21.894128,10.831134 C 21.843827,10.983138 21.800041,11.138301 21.762001,11.294239 C 21.728345,11.462518 21.747046,11.630803 21.696471,11.795341 C 21.652466,11.954037 21.646213,12.116374 21.60603,12.276199 C 21.583809,12.441873 21.543837,12.597786 21.495921,12.757159 C 21.471949,12.945776 21.440153,13.132227 21.407196,13.319928 L 21.328661,13.358243 C 21.3615,13.170316 21.394085,12.983941 21.416314,12.794855 C 21.46352,12.635285 21.506574,12.480308 21.526896,12.314087 C 21.567359,12.154121 21.574076,11.992129 21.6168,11.83295 C 21.668692,11.668586 21.650628,11.500937 21.682868,11.332222 C 21.720354,11.175883 21.764775,11.020677 21.81438,10.868241 C 21.877884,10.701566 21.908879,10.523993 22.017545,10.375455 C 22.095483,10.253025 22.151814,10.119689 22.241589,10.005532 C 22.320925,9.8636607 22.433159,9.7453637 22.537015,9.6215217 C 22.666825,9.4591657 22.838319,9.3262257 23.045698,9.2843057 C 23.208079,9.2811527 23.377185,9.2699047 23.530209,9.3341627 C 23.661411,9.4049767 23.791812,9.4735607 23.916716,9.5551477 C 24.031953,9.6441617 24.117403,9.7483797 24.173899,9.8843437 C 24.239669,10.067931 24.349593,10.232288 24.403318,10.420679 C 24.456183,10.589041 24.499731,10.770064 24.508209,10.945703 C 24.508077,11.161528 24.507638,11.377352 24.507507,11.593177 C 24.507646,11.831939 24.5076,12.070712 24.511072,12.309455 C 24.513592,12.513907 24.521757,12.719705 24.495695,12.923029 C 24.465238,13.100737 24.403971,13.272876 24.424773,13.455662 C 24.423106,13.635213 24.409671,13.813459 24.358185,13.986684 C 24.304148,14.24139 24.295663,14.507168 24.186165,14.749167 L 24.106545,14.78599 z" />
    <path
       style="opacity:1;fill:#999999;stroke:#000000;stroke-width:0.08930324000000001"
       d="M 11.250265,26.905443 C 10.421415,26.675039 10.133974,26.535096 10.133974,26.361968 C 10.133974,26.166462 10.550088,25.722747 10.849893,25.598563 C 11.121942,25.485877 12.404825,25.505322 14.473352,25.653488 L 15.285251,25.711644 L 15.243805,26.392164 L 15.202358,27.072685 L 16.141748,26.108837 C 17.099382,25.126271 17.337792,24.764938 17.24999,24.429183 C 17.200746,24.240871 17.205663,24.240409 18.824545,24.281615 C 19.717718,24.30435 20.729804,24.370164 21.073621,24.42787 C 21.417439,24.485576 22.196912,24.612126 22.805785,24.709092 C 24.204684,24.931875 24.923462,25.250127 24.895777,25.63447 C 24.872129,25.962757 24.722783,26.129872 24.27602,26.327961 C 23.691269,26.587231 21.93808,26.849217 20.774512,26.851202 C 20.20227,26.852179 19.191555,26.911659 18.528479,26.983381 C 17.731278,27.069612 16.415346,27.112135 14.643788,27.108913 C 12.157069,27.104391 11.91339,27.089779 11.250265,26.905443 z"
       id="path3193" />
    <path
       style="opacity:1;fill:#999999;stroke:#000000;stroke-width:0.08930324"
       d="M 19.452013,20.174009 C 19.718458,19.687517 19.734904,19.601021 19.76477,18.529049 C 19.796566,17.387739 19.673676,16.517084 19.382382,15.81992 L 19.261502,15.530614 L 19.604723,15.427782 C 20.331892,15.209918 21.558108,14.395874 23.16809,13.062187 C 23.517131,12.773047 23.824972,12.558743 23.852184,12.585954 C 23.942817,12.676585 23.712144,14.208167 23.495775,14.952397 C 23.378388,15.356166 23.317498,15.686522 23.360465,15.686522 C 23.403433,15.686522 23.714476,15.563161 24.051676,15.412386 C 24.662084,15.139451 24.665211,15.136226 24.76614,14.675635 C 24.821895,14.421195 24.908973,13.914031 24.959647,13.548602 C 25.010322,13.183172 25.074814,12.861681 25.102961,12.834176 C 25.172912,12.765821 25.996159,13.669753 26.271619,14.117373 C 26.394665,14.317329 26.596468,14.630818 26.720063,14.814016 C 27.070075,15.332819 27.52021,17.152173 27.408592,17.596896 C 27.361962,17.782689 27.274013,17.835991 26.892103,17.909915 C 24.952898,18.285279 24.128593,18.49603 23.038293,18.895216 C 21.327188,19.521692 21.160229,19.595739 20.468193,20.035058 C 19.973118,20.34934 19.313708,20.687503 19.195937,20.687503 C 19.182101,20.687503 19.297335,20.456431 19.452014,20.174009 L 19.452013,20.174009 z"
       id="path3195" />
    <path
       style="opacity:1;fill:#ffff00;stroke:#000000;stroke-width:0.08930324000000001"
       d="M 16.191513,26.176472 C 16.98521,25.337616 17.367537,24.788186 17.367537,24.486449 C 17.367537,24.372399 17.508481,24.349281 18.193592,24.350962 C 19.508852,24.354187 21.148781,24.506803 22.547125,24.75611 C 24.040568,25.022373 24.779706,25.31329 24.779706,25.634834 C 24.779706,26.420374 22.912428,26.733151 16.608459,27.003554 L 15.358214,27.057183 L 16.191513,26.176472 z"
       id="path3197" />
    <path
       style="opacity:1;fill:#ffff00;stroke:#000000;stroke-width:0.08930324"
       d="M 11.809604,26.9358 C 11.22952,26.838123 10.473607,26.586017 10.316592,26.437862 C 10.108743,26.241741 10.672576,25.712403 11.168544,25.638028 C 11.490834,25.589697 15.136634,25.737731 15.181771,25.80098 C 15.190193,25.812783 15.178424,26.093698 15.155617,26.425236 L 15.114151,27.028033 L 13.673373,27.01753 C 12.880949,27.011752 12.042252,26.974974 11.809606,26.9358 L 11.809604,26.9358 z"
       id="path3199" />
  </g>
</svg>
