<?xml version="1.0"?>
<svg xmlns="http://www.w3.org/2000/svg" width="400" height="150" version="1.0" id="ezcGraph"><defs><linearGradient id="Definition_LinearGradient_6_21_11_26_9ee9ff00_354e8000"><stop offset="0" style="stop-color: #9ee9ff; stop-opacity: 1.00;"/><stop offset="1" style="stop-color: #354e80; stop-opacity: 1.00;"/></linearGradient><linearGradient xmlns:xlink="http://www.w3.org/1999/xlink" id="LinearGradient_6_21_11_26_9ee9ff00_354e8000" x1="6.100505066" y1="21.100505066" x2="11.899494934" y2="26.899494934" gradientUnits="userSpaceOnUse" xlink:href="#Definition_LinearGradient_6_21_11_26_9ee9ff00_354e8000"/><linearGradient id="Definition_LinearGradient_6_39_11_44_c8ffff00_43578000"><stop offset="0" style="stop-color: #c8ffff; stop-opacity: 1.00;"/><stop offset="1" style="stop-color: #435780; stop-opacity: 1.00;"/></linearGradient><linearGradient xmlns:xlink="http://www.w3.org/1999/xlink" id="LinearGradient_6_39_11_44_c8ffff00_43578000" x1="6.100505066" y1="39.100505066" x2="11.899494934" y2="44.899494934" gradientUnits="userSpaceOnUse" xlink:href="#Definition_LinearGradient_6_39_11_44_c8ffff00_43578000"/><linearGradient id="Definition_LinearGradient_6_57_11_62_f5ffff00_52618000"><stop offset="0" style="stop-color: #f5ffff; stop-opacity: 1.00;"/><stop offset="1" style="stop-color: #526180; stop-opacity: 1.00;"/></linearGradient><linearGradient xmlns:xlink="http://www.w3.org/1999/xlink" id="LinearGradient_6_57_11_62_f5ffff00_52618000" x1="6.100505066" y1="57.100505066" x2="11.899494934" y2="62.899494934" gradientUnits="userSpaceOnUse" xlink:href="#Definition_LinearGradient_6_57_11_62_f5ffff00_52618000"/><linearGradient id="Definition_LinearGradient_6_75_11_80_ffffff00_5f6a8000"><stop offset="0" style="stop-color: #ffffff; stop-opacity: 1.00;"/><stop offset="1" style="stop-color: #5f6a80; stop-opacity: 1.00;"/></linearGradient><linearGradient xmlns:xlink="http://www.w3.org/1999/xlink" id="LinearGradient_6_75_11_80_ffffff00_5f6a8000" x1="6.100505066" y1="75.100505066" x2="11.899494934" y2="80.899494934" gradientUnits="userSpaceOnUse" xlink:href="#Definition_LinearGradient_6_75_11_80_ffffff00_5f6a8000"/><linearGradient id="Definition_LinearGradient_6_93_11_98_7eceff00_2a457900"><stop offset="0" style="stop-color: #7eceff; stop-opacity: 1.00;"/><stop offset="1" style="stop-color: #2a4579; stop-opacity: 1.00;"/></linearGradient><linearGradient xmlns:xlink="http://www.w3.org/1999/xlink" id="LinearGradient_6_93_11_98_7eceff00_2a457900" x1="6.100505066" y1="93.100505066" x2="11.899494934" y2="98.899494934" gradientUnits="userSpaceOnUse" xlink:href="#Definition_LinearGradient_6_93_11_98_7eceff00_2a457900"/><linearGradient id="Definition_LinearGradient_198_75_306_75_ffffffbf_0000007f"><stop offset="0" style="stop-color: #ffffff; stop-opacity: 0.25;"/><stop offset="1" style="stop-color: #000000; stop-opacity: 0.50;"/></linearGradient><linearGradient xmlns:xlink="http://www.w3.org/1999/xlink" id="LinearGradient_198_75_306_75_ffffffbf_0000007f" x1="198.15177471966" y1="75.295321738514" x2="306.15177471966" y2="75.295321738514" gradientUnits="userSpaceOnUse" xlink:href="#Definition_LinearGradient_198_75_306_75_ffffffbf_0000007f"/><linearGradient id="Definition_LinearGradient_186_80_294_80_ffffffbf_0000007f"><stop offset="0" style="stop-color: #ffffff; stop-opacity: 0.25;"/><stop offset="1" style="stop-color: #000000; stop-opacity: 0.50;"/></linearGradient><linearGradient xmlns:xlink="http://www.w3.org/1999/xlink" id="LinearGradient_186_80_294_80_ffffffbf_0000007f" x1="186" y1="80" x2="294" y2="80" gradientUnits="userSpaceOnUse" xlink:href="#Definition_LinearGradient_186_80_294_80_ffffffbf_0000007f"/><linearGradient id="Definition_LinearGradient_240_80_186_39_ffffffff_ffffff7f"><stop offset="0" style="stop-color: #ffffff; stop-opacity: 0.00;"/><stop offset="1" style="stop-color: #ffffff; stop-opacity: 0.50;"/></linearGradient><linearGradient xmlns:xlink="http://www.w3.org/1999/xlink" id="LinearGradient_240_80_186_39_ffffffff_ffffff7f" x1="240" y1="80" x2="186" y2="39.3" gradientUnits="userSpaceOnUse" xlink:href="#Definition_LinearGradient_240_80_186_39_ffffffff_ffffff7f"/><linearGradient id="Definition_RadialGradient_201_108_108_81_0.00_ffffff7f_ffffffcc"><stop offset="0" style="stop-color: #ffffff; stop-opacity: 0.50;"/><stop offset="1" style="stop-color: #ffffff; stop-opacity: 0.20;"/></linearGradient><radialGradient xmlns:xlink="http://www.w3.org/1999/xlink" id="RadialGradient_201_108_108_81_0.00_ffffff7f_ffffffcc" cx="201.3263286132" cy="108.87921044969" fx="201.3263286132" fy="108.87921044969" r="108" gradientUnits="userSpaceOnUse" xlink:href="#Definition_RadialGradient_201_108_108_81_0.00_ffffff7f_ffffffcc"/><linearGradient id="Definition_LinearGradient_252_75_198_34_ffffffff_ffffff7f"><stop offset="0" style="stop-color: #ffffff; stop-opacity: 0.00;"/><stop offset="1" style="stop-color: #ffffff; stop-opacity: 0.50;"/></linearGradient><linearGradient xmlns:xlink="http://www.w3.org/1999/xlink" id="LinearGradient_252_75_198_34_ffffffff_ffffff7f" x1="252.15177471966" y1="75.295321738514" x2="198.15177471966" y2="34.595321738514" gradientUnits="userSpaceOnUse" xlink:href="#Definition_LinearGradient_252_75_198_34_ffffffff_ffffff7f"/><linearGradient id="Definition_RadialGradient_214_103_108_81_0.00_ffffff7f_ffffffcc"><stop offset="0" style="stop-color: #ffffff; stop-opacity: 0.50;"/><stop offset="1" style="stop-color: #ffffff; stop-opacity: 0.20;"/></linearGradient><radialGradient xmlns:xlink="http://www.w3.org/1999/xlink" id="RadialGradient_214_103_108_81_0.00_ffffff7f_ffffffcc" cx="214.41807426594" cy="103.85675855403" fx="214.41807426594" fy="103.85675855403" r="108" gradientUnits="userSpaceOnUse" xlink:href="#Definition_RadialGradient_214_103_108_81_0.00_ffffff7f_ffffffcc"/><linearGradient id="Definition_RadialGradient_202_109_108_81_0.00_ffffff7f_ffffffcc"><stop offset="0" style="stop-color: #ffffff; stop-opacity: 0.50;"/><stop offset="1" style="stop-color: #ffffff; stop-opacity: 0.20;"/></linearGradient><radialGradient xmlns:xlink="http://www.w3.org/1999/xlink" id="RadialGradient_202_109_108_81_0.00_ffffff7f_ffffffcc" cx="202.18490320807" cy="109.11700756596" fx="202.18490320807" fy="109.11700756596" r="108" gradientUnits="userSpaceOnUse" xlink:href="#Definition_RadialGradient_202_109_108_81_0.00_ffffff7f_ffffffcc"/></defs><g id="ezcGraphChart" color-rendering="optimizeQuality" shape-rendering="geometricPrecision" text-rendering="optimizeLegibility"><path d=" M 0.0000,150.0000 L 0.0000,0.0000 L 400.0000,0.0000 L 400.0000,150.0000 L 0.0000,150.0000 z " style="fill: #ffffff; fill-opacity: 1.00; stroke: none;" id="ezcGraphPolygon_1"/><path d=" M 0.0000,15.0000 L 0.0000,0.0000 L 400.0000,0.0000 L 400.0000,15.0000 L 0.0000,15.0000 z " style="fill: #000000; fill-opacity: 0.00; stroke: none;" id="ezcGraphPolygon_2"/><path d=" M 0.0000,150.0000 L 0.0000,15.0000 L 80.0000,15.0000 L 80.0000,150.0000 L 0.0000,150.0000 z " style="fill: #000000; fill-opacity: 0.00; stroke: none;" id="ezcGraphPolygon_4"/><ellipse cx="9" cy="24" rx="7" ry="7" style="fill: #699bff; fill-opacity: 1.00; stroke: none;" id="ezcGraphCircle_5"/><ellipse cx="9" cy="24" rx="6.3" ry="6.3" style="fill: url(#LinearGradient_6_21_11_26_9ee9ff00_354e8000); stroke: none;" id="ezcGraphCircle_6"/><ellipse cx="9" cy="42" rx="7" ry="7" style="fill: #85aeff; fill-opacity: 1.00; stroke: none;" id="ezcGraphCircle_8"/><ellipse cx="9" cy="42" rx="6.3" ry="6.3" style="fill: url(#LinearGradient_6_39_11_44_c8ffff00_43578000); stroke: none;" id="ezcGraphCircle_9"/><ellipse cx="9" cy="60" rx="7" ry="7" style="fill: #a3c2ff; fill-opacity: 1.00; stroke: none;" id="ezcGraphCircle_11"/><ellipse cx="9" cy="60" rx="6.3" ry="6.3" style="fill: url(#LinearGradient_6_57_11_62_f5ffff00_52618000); stroke: none;" id="ezcGraphCircle_12"/><ellipse cx="9" cy="78" rx="7" ry="7" style="fill: #bdd3ff; fill-opacity: 1.00; stroke: none;" id="ezcGraphCircle_14"/><ellipse cx="9" cy="78" rx="6.3" ry="6.3" style="fill: url(#LinearGradient_6_75_11_80_ffffff00_5f6a8000); stroke: none;" id="ezcGraphCircle_15"/><ellipse cx="9" cy="96" rx="7" ry="7" style="fill: #5489f2; fill-opacity: 1.00; stroke: none;" id="ezcGraphCircle_17"/><ellipse cx="9" cy="96" rx="6.3" ry="6.3" style="fill: url(#LinearGradient_6_93_11_98_7eceff00_2a457900); stroke: none;" id="ezcGraphCircle_18"/><path d="M 240.00,85.00 L 266.79,125.72 A 59.00,45.70 0 1,1 244.05,39.41 z" style="fill: #000000; fill-opacity: 0.06; stroke: none;" id="ezcGraphCircleSector_20"/><path d="M 240.00,85.00 L 267.23,124.47 A 58.00,44.70 0 1,1 244.99,40.47 z" style="fill: #000000; fill-opacity: 0.06; stroke: none;" id="ezcGraphCircleSector_21"/><path d="M 240.00,85.00 L 267.63,123.22 A 57.00,43.70 0 1,1 245.89,41.53 z" style="fill: #000000; fill-opacity: 0.06; stroke: none;" id="ezcGraphCircleSector_22"/><path d="M 240.00,85.00 L 268.00,121.98 A 56.00,42.70 0 1,1 246.76,42.61 z" style="fill: #000000; fill-opacity: 0.06; stroke: none;" id="ezcGraphCircleSector_23"/><path d="M 240.00,85.00 L 268.33,120.74 A 55.00,41.70 0 1,1 247.59,43.70 z" style="fill: #000000; fill-opacity: 0.06; stroke: none;" id="ezcGraphCircleSector_24"/><path d="M 252.15,80.30 L 256.20,34.70 A 59.00,45.70 0 0,1 300.82,106.13 z" style="fill: #000000; fill-opacity: 0.06; stroke: none;" id="ezcGraphCircleSector_25"/><path d="M 252.15,80.30 L 255.12,35.65 A 58.00,44.70 0 0,1 299.42,106.20 z" style="fill: #000000; fill-opacity: 0.06; stroke: none;" id="ezcGraphCircleSector_26"/><path d="M 252.15,80.30 L 254.08,36.62 A 57.00,43.70 0 0,1 298.02,106.24 z" style="fill: #000000; fill-opacity: 0.06; stroke: none;" id="ezcGraphCircleSector_27"/><path d="M 252.15,80.30 L 253.06,37.60 A 56.00,42.70 0 0,1 296.63,106.24 z" style="fill: #000000; fill-opacity: 0.06; stroke: none;" id="ezcGraphCircleSector_28"/><path d="M 252.15,80.30 L 252.09,38.60 A 55.00,41.70 0 0,1 295.25,106.21 z" style="fill: #000000; fill-opacity: 0.06; stroke: none;" id="ezcGraphCircleSector_29"/><path d="M 240.00,85.00 L 288.67,110.83 A 59.00,45.70 0 0,1 266.79,125.72 z" style="fill: #000000; fill-opacity: 0.06; stroke: none;" id="ezcGraphCircleSector_30"/><path d="M 240.00,85.00 L 288.41,109.62 A 58.00,44.70 0 0,1 265.43,125.18 z" style="fill: #000000; fill-opacity: 0.06; stroke: none;" id="ezcGraphCircleSector_31"/><path d="M 240.00,85.00 L 288.12,108.43 A 57.00,43.70 0 0,1 264.09,124.61 z" style="fill: #000000; fill-opacity: 0.06; stroke: none;" id="ezcGraphCircleSector_32"/><path d="M 240.00,85.00 L 287.79,107.26 A 56.00,42.70 0 0,1 262.78,124.01 z" style="fill: #000000; fill-opacity: 0.06; stroke: none;" id="ezcGraphCircleSector_33"/><path d="M 240.00,85.00 L 287.43,106.11 A 55.00,41.70 0 0,1 261.49,123.39 z" style="fill: #000000; fill-opacity: 0.06; stroke: none;" id="ezcGraphCircleSector_34"/><path d=" M 255.8569,34.6912 L 252.1518,75.2953 L 252.1518,80.2953 L 255.8569,39.6912 L 255.8569,34.6912 z " style="fill: #85aeff; fill-opacity: 1.00; stroke: none;" id="ezcGraphPolygon_35"/><path d=" M 255.8569,34.6912 L 252.1518,75.2953 L 252.1518,80.2953 L 255.8569,39.6912 L 255.8569,34.6912 z " style="fill: none; stroke: #85aeff; stroke-width: 1; stroke-opacity: 1.00; stroke-linecap: round; stroke-linejoin: round;" id="ezcGraphPolygon_36"/><path d="M 306.15,80.30 A 54.00,40.70 0 0,0 255.86,39.69 L 255.86,34.69 A 54.00,40.700000 0 0,1 306.15,75.30 z" style="fill: #85aeff; fill-opacity: 1.00; stroke: none;" id="ezcGraphCircularArc_37"/><path d="M 306.15,80.30 A 54.00,40.70 0 0,0 255.86,39.69 L 255.86,34.69 A 54.00,40.700000 0 0,1 306.15,75.30 z" style="fill: url(#LinearGradient_198_75_306_75_ffffffbf_0000007f); stroke: none;"/><path d="M 296.70,103.30 A 54.00,40.70 0 0,0 306.15,80.30 L 306.15,75.30 A 54.00,40.700000 0 0,1 296.70,98.30 z" style="fill: #85aeff; fill-opacity: 1.00; stroke: none;" id="ezcGraphCircularArc_38"/><path d="M 296.70,103.30 A 54.00,40.70 0 0,0 306.15,80.30 L 306.15,75.30 A 54.00,40.700000 0 0,1 296.70,98.30 z" style="fill: url(#LinearGradient_198_75_306_75_ffffffbf_0000007f); stroke: none;"/><path d=" M 243.7052,39.3959 L 240.0000,80.0000 L 240.0000,85.0000 L 243.7052,44.3959 L 243.7052,39.3959 z " style="fill: #699bff; fill-opacity: 1.00; stroke: none;" id="ezcGraphPolygon_39"/><path d=" M 243.7052,39.3959 L 240.0000,80.0000 L 240.0000,85.0000 L 243.7052,44.3959 L 243.7052,39.3959 z " style="fill: none; stroke: #699bff; stroke-width: 1; stroke-opacity: 1.00; stroke-linecap: round; stroke-linejoin: round;" id="ezcGraphPolygon_40"/><path d=" M 296.6992,98.2990 L 252.1518,75.2953 L 252.1518,80.2953 L 296.6992,103.2990 L 296.6992,98.2990 z " style="fill: #85aeff; fill-opacity: 1.00; stroke: none;" id="ezcGraphPolygon_41"/><path d=" M 296.6992,98.2990 L 252.1518,75.2953 L 252.1518,80.2953 L 296.6992,103.2990 L 296.6992,98.2990 z " style="fill: none; stroke: #85aeff; stroke-width: 1; stroke-opacity: 1.00; stroke-linecap: round; stroke-linejoin: round;" id="ezcGraphPolygon_42"/><path d="M 186.00,85.00 A 54.00,40.70 0 0,0 264.52,121.26 L 264.52,116.26 A 54.00,40.700000 0 0,1 186.00,80.00 z" style="fill: #699bff; fill-opacity: 1.00; stroke: none;" id="ezcGraphCircularArc_43"/><path d="M 186.00,85.00 A 54.00,40.70 0 0,0 264.52,121.26 L 264.52,116.26 A 54.00,40.700000 0 0,1 186.00,80.00 z" style="fill: url(#LinearGradient_186_80_294_80_ffffffbf_0000007f); stroke: none;"/><path d="M 243.71,44.40 A 54.00,40.70 0 0,0 186.00,85.00 L 186.00,80.00 A 54.00,40.700000 0 0,1 243.71,39.40 z" style="fill: #699bff; fill-opacity: 1.00; stroke: none;" id="ezcGraphCircularArc_44"/><path d="M 243.71,44.40 A 54.00,40.70 0 0,0 186.00,85.00 L 186.00,80.00 A 54.00,40.700000 0 0,1 243.71,39.40 z" style="fill: url(#LinearGradient_186_80_294_80_ffffffbf_0000007f); stroke: none;"/><path d=" M 284.5474,103.0037 L 240.0000,80.0000 L 240.0000,85.0000 L 284.5474,108.0037 L 284.5474,103.0037 z " style="fill: #a3c2ff; fill-opacity: 1.00; stroke: none;" id="ezcGraphPolygon_45"/><path d=" M 284.5474,103.0037 L 240.0000,80.0000 L 240.0000,85.0000 L 284.5474,108.0037 L 284.5474,103.0037 z " style="fill: none; stroke: #a3c2ff; stroke-width: 1; stroke-opacity: 1.00; stroke-linecap: round; stroke-linejoin: round;" id="ezcGraphPolygon_46"/><path d=" M 274.2949,111.4382 L 240.0000,80.0000 L 240.0000,85.0000 L 274.2949,116.4382 L 274.2949,111.4382 z " style="fill: #a3c2ff; fill-opacity: 1.00; stroke: none;" id="ezcGraphPolygon_47"/><path d=" M 274.2949,111.4382 L 240.0000,80.0000 L 240.0000,85.0000 L 274.2949,116.4382 L 274.2949,111.4382 z " style="fill: none; stroke: #a3c2ff; stroke-width: 1; stroke-opacity: 1.00; stroke-linecap: round; stroke-linejoin: round;" id="ezcGraphPolygon_48"/><path d=" M 274.2949,111.4382 L 240.0000,80.0000 L 240.0000,85.0000 L 274.2949,116.4382 L 274.2949,111.4382 z " style="fill: #bdd3ff; fill-opacity: 1.00; stroke: none;" id="ezcGraphPolygon_49"/><path d=" M 274.2949,111.4382 L 240.0000,80.0000 L 240.0000,85.0000 L 274.2949,116.4382 L 274.2949,111.4382 z " style="fill: none; stroke: #bdd3ff; stroke-width: 1; stroke-opacity: 1.00; stroke-linecap: round; stroke-linejoin: round;" id="ezcGraphPolygon_50"/><path d=" M 268.8002,114.4283 L 240.0000,80.0000 L 240.0000,85.0000 L 268.8002,119.4283 L 268.8002,114.4283 z " style="fill: #bdd3ff; fill-opacity: 1.00; stroke: none;" id="ezcGraphPolygon_51"/><path d=" M 268.8002,114.4283 L 240.0000,80.0000 L 240.0000,85.0000 L 268.8002,119.4283 L 268.8002,114.4283 z " style="fill: none; stroke: #bdd3ff; stroke-width: 1; stroke-opacity: 1.00; stroke-linecap: round; stroke-linejoin: round;" id="ezcGraphPolygon_52"/><path d=" M 268.8002,114.4283 L 240.0000,80.0000 L 240.0000,85.0000 L 268.8002,119.4283 L 268.8002,114.4283 z " style="fill: #5489f2; fill-opacity: 1.00; stroke: none;" id="ezcGraphPolygon_53"/><path d=" M 268.8002,114.4283 L 240.0000,80.0000 L 240.0000,85.0000 L 268.8002,119.4283 L 268.8002,114.4283 z " style="fill: none; stroke: #5489f2; stroke-width: 1; stroke-opacity: 1.00; stroke-linecap: round; stroke-linejoin: round;" id="ezcGraphPolygon_54"/><path d=" M 264.5155,116.2640 L 240.0000,80.0000 L 240.0000,85.0000 L 264.5155,121.2640 L 264.5155,116.2640 z " style="fill: #699bff; fill-opacity: 1.00; stroke: none;" id="ezcGraphPolygon_55"/><path d=" M 264.5155,116.2640 L 240.0000,80.0000 L 240.0000,85.0000 L 264.5155,121.2640 L 264.5155,116.2640 z " style="fill: none; stroke: #699bff; stroke-width: 1; stroke-opacity: 1.00; stroke-linecap: round; stroke-linejoin: round;" id="ezcGraphPolygon_56"/><path d=" M 264.5155,116.2640 L 240.0000,80.0000 L 240.0000,85.0000 L 264.5155,121.2640 L 264.5155,116.2640 z " style="fill: #5489f2; fill-opacity: 1.00; stroke: none;" id="ezcGraphPolygon_57"/><path d=" M 264.5155,116.2640 L 240.0000,80.0000 L 240.0000,85.0000 L 264.5155,121.2640 L 264.5155,116.2640 z " style="fill: none; stroke: #5489f2; stroke-width: 1; stroke-opacity: 1.00; stroke-linecap: round; stroke-linejoin: round;" id="ezcGraphPolygon_58"/><path d="M 274.29,116.44 A 54.00,40.70 0 0,0 284.55,108.00 L 284.55,103.00 A 54.00,40.700000 0 0,1 274.29,111.44 z" style="fill: #a3c2ff; fill-opacity: 1.00; stroke: none;" id="ezcGraphCircularArc_59"/><path d="M 274.29,116.44 A 54.00,40.70 0 0,0 284.55,108.00 L 284.55,103.00 A 54.00,40.700000 0 0,1 274.29,111.44 z" style="fill: url(#LinearGradient_186_80_294_80_ffffffbf_0000007f); stroke: none;"/><path d="M 268.80,119.43 A 54.00,40.70 0 0,0 274.29,116.44 L 274.29,111.44 A 54.00,40.700000 0 0,1 268.80,114.43 z" style="fill: #bdd3ff; fill-opacity: 1.00; stroke: none;" id="ezcGraphCircularArc_60"/><path d="M 268.80,119.43 A 54.00,40.70 0 0,0 274.29,116.44 L 274.29,111.44 A 54.00,40.700000 0 0,1 268.80,114.43 z" style="fill: url(#LinearGradient_186_80_294_80_ffffffbf_0000007f); stroke: none;"/><path d="M 264.52,121.26 A 54.00,40.70 0 0,0 268.80,119.43 L 268.80,114.43 A 54.00,40.700000 0 0,1 264.52,116.26 z" style="fill: #5489f2; fill-opacity: 1.00; stroke: none;" id="ezcGraphCircularArc_61"/><path d="M 264.52,121.26 A 54.00,40.70 0 0,0 268.80,119.43 L 268.80,114.43 A 54.00,40.700000 0 0,1 264.52,116.26 z" style="fill: url(#LinearGradient_186_80_294_80_ffffffbf_0000007f); stroke: none;"/><path d="M 240.00,80.00 L 264.52,116.26 A 54.00,40.70 0 1,1 243.71,39.40 z" style="fill: #699bff; fill-opacity: 1.00; stroke: none;" id="ezcGraphCircleSector_62"/><path d="M 240.00,80.00 L 264.52,116.26 A 54.00,40.70 0 1,1 243.71,39.40 z" style="fill: url(#LinearGradient_240_80_186_39_ffffffff_ffffff7f); stroke: none;" id="ezcGraphCircleSector_63"/><path d="M 239.51,80.10 L 264.02,115.83 A 53.99,40.10 0 1,1 243.21,40.09 z" style="fill: none; stroke: #699bff; stroke-width: 1; stroke-opacity: 1.00; stroke-linecap: round; stroke-linejoin: round;" id="ezcGraphCircleSector_64"/><path d="M 264.03,116.36  A 54.00,40.70 0 0,1 185.51,80.10" style="fill: none; stroke: url(#RadialGradient_201_108_108_81_0.00_ffffff7f_ffffffcc);" id="ezcGraphCircularArc_65"/><path d="M 185.51,80.10  A 54.00,40.70 0 0,1 243.22,39.50" style="fill: none; stroke: url(#RadialGradient_201_108_108_81_0.00_ffffff7f_ffffffcc);" id="ezcGraphCircularArc_66"/><path d="M 252.15,75.30 L 255.86,34.69 A 54.00,40.70 0 0,1 296.70,98.30 z" style="fill: #85aeff; fill-opacity: 1.00; stroke: none;" id="ezcGraphCircleSector_67"/><path d="M 252.15,75.30 L 255.86,34.69 A 54.00,40.70 0 0,1 296.70,98.30 z" style="fill: url(#LinearGradient_252_75_198_34_ffffffff_ffffff7f); stroke: none;" id="ezcGraphCircleSector_68"/><path d="M 252.60,75.08 L 256.24,34.75 A 53.05,40.42 0 0,1 296.37,97.92 z" style="fill: none; stroke: #85aeff; stroke-width: 1; stroke-opacity: 1.00; stroke-linecap: round; stroke-linejoin: round;" id="ezcGraphCircleSector_69"/><path d="M 256.31,34.47  A 54.00,40.70 0 0,1 306.60,75.08" style="fill: none; stroke: url(#RadialGradient_214_103_108_81_0.00_ffffff7f_ffffffcc);" id="ezcGraphCircularArc_70"/><path d="M 306.60,75.08  A 54.00,40.70 0 0,1 297.15,98.08" style="fill: none; stroke: url(#RadialGradient_214_103_108_81_0.00_ffffff7f_ffffffcc);" id="ezcGraphCircularArc_71"/><path d="M 240.00,80.00 L 284.55,103.00 A 54.00,40.70 0 0,1 274.29,111.44 z" style="fill: #a3c2ff; fill-opacity: 1.00; stroke: none;" id="ezcGraphCircleSector_72"/><path d="M 240.00,80.00 L 284.55,103.00 A 54.00,40.70 0 0,1 274.29,111.44 z" style="fill: url(#LinearGradient_240_80_186_39_ffffffff_ffffff7f); stroke: none;" id="ezcGraphCircleSector_73"/><path d="M 240.37,80.34 L 284.20,102.87 A 53.13,39.86 0 0,1 274.11,111.13 z" style="fill: none; stroke: #a3c2ff; stroke-width: 1; stroke-opacity: 1.00; stroke-linecap: round; stroke-linejoin: round;" id="ezcGraphCircleSector_74"/><path d="M 284.92,103.34  A 54.00,40.70 0 0,1 274.66,111.78" style="fill: none; stroke: url(#RadialGradient_202_109_108_81_0.00_ffffff7f_ffffffcc);" id="ezcGraphCircularArc_75"/><path d="M 240.00,80.00 L 274.29,111.44 A 54.00,40.70 0 0,1 268.80,114.43 z" style="fill: #bdd3ff; fill-opacity: 1.00; stroke: none;" id="ezcGraphCircleSector_76"/><path d="M 240.00,80.00 L 274.29,111.44 A 54.00,40.70 0 0,1 268.80,114.43 z" style="fill: url(#LinearGradient_240_80_186_39_ffffffff_ffffff7f); stroke: none;" id="ezcGraphCircleSector_77"/><path d="M 240.29,80.41 L 274.08,111.14 A 53.21,39.79 0 0,1 268.67,114.07 z" style="fill: none; stroke: #bdd3ff; stroke-width: 1; stroke-opacity: 1.00; stroke-linecap: round; stroke-linejoin: round;" id="ezcGraphCircleSector_78"/><path d="M 274.59,111.84  A 54.00,40.70 0 0,1 269.09,114.83" style="fill: none; stroke: url(#RadialGradient_202_109_108_81_0.00_ffffff7f_ffffffcc);" id="ezcGraphCircularArc_79"/><path d="M 240.00,80.00 L 268.80,114.43 A 54.00,40.70 0 0,1 264.52,116.26 z" style="fill: #5489f2; fill-opacity: 1.00; stroke: none;" id="ezcGraphCircleSector_80"/><path d="M 240.00,80.00 L 268.80,114.43 A 54.00,40.70 0 0,1 264.52,116.26 z" style="fill: url(#LinearGradient_240_80_186_39_ffffffff_ffffff7f); stroke: none;" id="ezcGraphCircleSector_81"/><path d="M 240.25,80.43 L 268.65,114.07 A 53.25,39.77 0 0,1 264.42,115.87 z" style="fill: none; stroke: #5489f2; stroke-width: 1; stroke-opacity: 1.00; stroke-linecap: round; stroke-linejoin: round;" id="ezcGraphCircleSector_82"/><path d="M 269.05,114.86  A 54.00,40.70 0 0,1 264.76,116.70" style="fill: none; stroke: url(#RadialGradient_202_109_108_81_0.00_ffffff7f_ffffffcc);" id="ezcGraphCircularArc_83"/><path d=" M 204.7268,85.3314 L 166.9180,90.0000" style="fill: none; stroke: #555753; stroke-width: 1; stroke-opacity: 0.47; stroke-linecap: round; stroke-linejoin: round;" id="ezcGraphLine_84"/><ellipse cx="204.72682540384" cy="85.331437621347" rx="3" ry="3" style="fill: #555753; fill-opacity: 0.47; stroke: none;" id="ezcGraphCircle_85"/><ellipse cx="166.91796067501" cy="90" rx="3" ry="3" style="fill: #555753; fill-opacity: 0.47; stroke: none;" id="ezcGraphCircle_86"/><path d=" M 284.5565,63.6788 L 305.6992,51.0000" style="fill: none; stroke: #555753; stroke-width: 1; stroke-opacity: 0.47; stroke-linecap: round; stroke-linejoin: round;" id="ezcGraphLine_88"/><ellipse cx="284.55650730542" cy="63.678832203982" rx="3" ry="3" style="fill: #555753; fill-opacity: 0.47; stroke: none;" id="ezcGraphCircle_89"/><ellipse cx="305.6992462264" cy="51" rx="3" ry="3" style="fill: #555753; fill-opacity: 0.47; stroke: none;" id="ezcGraphCircle_90"/><path d=" M 266.5442,98.0140 L 304.6003,116.0000" style="fill: none; stroke: #555753; stroke-width: 1; stroke-opacity: 0.47; stroke-linecap: round; stroke-linejoin: round;" id="ezcGraphLine_92"/><ellipse cx="266.54419623468" cy="98.013950488753" rx="3" ry="3" style="fill: #555753; fill-opacity: 0.47; stroke: none;" id="ezcGraphCircle_93"/><ellipse cx="304.60034129593" cy="116" rx="3" ry="3" style="fill: #555753; fill-opacity: 0.47; stroke: none;" id="ezcGraphCircle_94"/><path d=" M 261.0732,101.6205 L 294.4484,129.5000" style="fill: none; stroke: #555753; stroke-width: 1; stroke-opacity: 0.47; stroke-linecap: round; stroke-linejoin: round;" id="ezcGraphLine_96"/><ellipse cx="261.07322126658" cy="101.62048697502" rx="3" ry="3" style="fill: #555753; fill-opacity: 0.47; stroke: none;" id="ezcGraphCircle_97"/><ellipse cx="294.44842618703" cy="129.5" rx="3" ry="3" style="fill: #555753; fill-opacity: 0.47; stroke: none;" id="ezcGraphCircle_98"/><path d=" M 257.7904,103.1830 L 275.9333,143.0000" style="fill: none; stroke: #555753; stroke-width: 1; stroke-opacity: 0.47; stroke-linecap: round; stroke-linejoin: round;" id="ezcGraphLine_100"/><ellipse cx="257.79041452434" cy="103.18295044315" rx="3" ry="3" style="fill: #555753; fill-opacity: 0.47; stroke: none;" id="ezcGraphCircle_101"/><ellipse cx="275.93325909419" cy="143" rx="3" ry="3" style="fill: #555753; fill-opacity: 0.47; stroke: none;" id="ezcGraphCircle_102"/><g id="ezcGraphTextBox_3"><path d=" M 140.9350,15.0000 L 140.9350,0.5000 L 259.5650,0.5000 L 259.5650,15.0000 L 140.9350,15.0000 z " style="fill: #ffffff; fill-opacity: 0.00; stroke: none;" id="ezcGraphPolygon_104"/><text id="ezcGraphTextBox_3_text" x="141.435" text-length="117.13px" y="12.05" style="font-size: 13px; font-family: sans-serif; fill: #2e3436; fill-opacity: 1.00; stroke: none;">Access statistics</text></g><g id="ezcGraphTextBox_7"><path d=" M 16.5000,31.0000 L 16.5000,17.5000 L 62.5200,17.5000 L 62.5200,31.0000 L 16.5000,31.0000 z " style="fill: #ffffff; fill-opacity: 0.00; stroke: none;" id="ezcGraphPolygon_105"/><text id="ezcGraphTextBox_7_text" x="17" text-length="44.52px" y="28.2" style="font-size: 12px; font-family: sans-serif; fill: #2e3436; fill-opacity: 1.00; stroke: none;">Mozilla</text></g><g id="ezcGraphTextBox_10"><path d=" M 16.5000,49.0000 L 16.5000,35.5000 L 68.8800,35.5000 L 68.8800,49.0000 L 16.5000,49.0000 z " style="fill: #ffffff; fill-opacity: 0.00; stroke: none;" id="ezcGraphPolygon_106"/><text id="ezcGraphTextBox_10_text" x="17" text-length="50.88px" y="46.2" style="font-size: 12px; font-family: sans-serif; fill: #2e3436; fill-opacity: 1.00; stroke: none;">Explorer</text></g><g id="ezcGraphTextBox_13"><path d=" M 16.5000,67.0000 L 16.5000,53.5000 L 49.8000,53.5000 L 49.8000,67.0000 L 16.5000,67.0000 z " style="fill: #ffffff; fill-opacity: 0.00; stroke: none;" id="ezcGraphPolygon_107"/><text id="ezcGraphTextBox_13_text" x="17" text-length="31.8px" y="64.2" style="font-size: 12px; font-family: sans-serif; fill: #2e3436; fill-opacity: 1.00; stroke: none;">Opera</text></g><g id="ezcGraphTextBox_16"><path d=" M 16.5000,85.0000 L 16.5000,71.5000 L 56.1600,71.5000 L 56.1600,85.0000 L 16.5000,85.0000 z " style="fill: #ffffff; fill-opacity: 0.00; stroke: none;" id="ezcGraphPolygon_108"/><text id="ezcGraphTextBox_16_text" x="17" text-length="38.16px" y="82.2" style="font-size: 12px; font-family: sans-serif; fill: #2e3436; fill-opacity: 1.00; stroke: none;">Safari</text></g><g id="ezcGraphTextBox_19"><path d=" M 16.5000,103.0000 L 16.5000,89.5000 L 75.2400,89.5000 L 75.2400,103.0000 L 16.5000,103.0000 z " style="fill: #ffffff; fill-opacity: 0.00; stroke: none;" id="ezcGraphPolygon_109"/><text id="ezcGraphTextBox_19_text" x="17" text-length="57.24px" y="100.2" style="font-size: 12px; font-family: sans-serif; fill: #2e3436; fill-opacity: 1.00; stroke: none;">Konqueror</text></g><g id="ezcGraphTextBox_87"><path d=" M 81.1830,96.7500 L 81.1830,83.7500 L 161.9180,83.7500 L 161.9180,96.7500 L 81.1830,96.7500 z " style="fill: #ffffff; fill-opacity: 0.00; stroke: none;" id="ezcGraphPolygon_110"/><text id="ezcGraphTextBox_87_text" x="81.682960675006" text-length="79.235px" y="94.025" style="font-size: 11px; font-family: sans-serif; fill: #2e3436; fill-opacity: 1.00; stroke: none;">19113 (58.6%)</text></g><g id="ezcGraphTextBox_91"><path d=" M 311.1992,57.7500 L 311.1992,44.7500 L 391.9342,44.7500 L 391.9342,57.7500 L 311.1992,57.7500 z " style="fill: #ffffff; fill-opacity: 0.00; stroke: none;" id="ezcGraphPolygon_111"/><text id="ezcGraphTextBox_91_text" x="311.6992462264" text-length="79.235px" y="55.025" style="font-size: 11px; font-family: sans-serif; fill: #2e3436; fill-opacity: 1.00; stroke: none;">10917 (33.5%)</text></g><g id="ezcGraphTextBox_95"><path d=" M 310.1003,122.7500 L 310.1003,109.7500 L 378.6453,109.7500 L 378.6453,122.7500 L 310.1003,122.7500 z " style="fill: #ffffff; fill-opacity: 0.00; stroke: none;" id="ezcGraphPolygon_112"/><text id="ezcGraphTextBox_95_text" x="310.60034129593" text-length="67.045px" y="120.025" style="font-size: 11px; font-family: sans-serif; fill: #2e3436; fill-opacity: 1.00; stroke: none;">1464 (4.5%)</text></g><g id="ezcGraphTextBox_99"><path d=" M 299.9484,136.2500 L 299.9484,123.2500 L 362.3984,123.2500 L 362.3984,136.2500 L 299.9484,136.2500 z " style="fill: #ffffff; fill-opacity: 0.00; stroke: none;" id="ezcGraphPolygon_113"/><text id="ezcGraphTextBox_99_text" x="300.44842618703" text-length="60.95px" y="133.525" style="font-size: 11px; font-family: sans-serif; fill: #2e3436; fill-opacity: 1.00; stroke: none;">652 (2.0%)</text></g><g id="ezcGraphTextBox_103"><path d=" M 281.4333,149.7500 L 281.4333,136.7500 L 343.8833,136.7500 L 343.8833,149.7500 L 281.4333,149.7500 z " style="fill: #ffffff; fill-opacity: 0.00; stroke: none;" id="ezcGraphPolygon_114"/><text id="ezcGraphTextBox_103_text" x="281.93325909419" text-length="60.95px" y="147.025" style="font-size: 11px; font-family: sans-serif; fill: #2e3436; fill-opacity: 1.00; stroke: none;">474 (1.5%)</text></g></g></svg>
