<svg width="20" height="20" viewBox="0 0 24 24" fill="none" xmlns="http://www.w3.org/2000/svg">
<path d="M0 3C0 1.34315 1.34315 0 3 0H21C22.6569 0 24 1.34315 24 3V21C24 22.6569 22.6569 24 21 24H3C1.34315 24 0 22.6569 0 21V3Z" fill="#0E76A8"/>
<path fill-rule="evenodd" clip-rule="evenodd" d="M3.0004 5.25C3.0004 4.008 4.0084 3 5.2504 3C6.4924 3 7.5004 4.008 7.5004 5.25C7.5004 6.492 6.4924 7.5 5.2504 7.5C4.0084 7.5 3.0004 6.492 3.0004 5.25ZM15.1508 8.4004C11.9198 8.4004 9.2998 11.0044 9.2998 14.2144V20.0994C9.2998 20.5964 9.7038 21.0004 10.2008 21.0004H12.2998C12.7968 21.0004 13.2008 20.5964 13.2008 20.0994V14.2144C13.2008 13.0784 14.1848 12.1704 15.3528 12.2874C16.3668 12.3884 17.0998 13.3154 17.0998 14.3344V20.0994C17.0998 20.5964 17.5038 21.0004 18.0008 21.0004H20.0998C20.5968 21.0004 21.0008 20.5964 21.0008 20.0994V14.2144C21.0008 11.0044 18.3808 8.4004 15.1508 8.4004ZM6.6 9.2998H3.901C3.404 9.2998 3 9.7028 3 10.1998V20.0998C3 20.5968 3.404 20.9998 3.901 20.9998H6.6C7.097 20.9998 7.5 20.5968 7.5 20.0998V10.1998C7.5 9.7028 7.097 9.2998 6.6 9.2998Z" fill="white"/>
</svg>
