<svg width="18" height="16" viewBox="0 0 18 16" fill="none" xmlns="http://www.w3.org/2000/svg">
<path fill-rule="evenodd" clip-rule="evenodd" d="M5.07693 16.0003C12.3229 16.0003 16.5149 10.3743 16.5149 5.03528C16.5149 4.88828 17.5449 4.00428 17.9859 2.16128C18.0759 1.78728 17.7119 1.49228 17.3689 1.64928C16.4889 2.05328 15.5959 1.73328 15.2079 1.27328C13.7159 -0.353725 11.2209 -0.431725 9.63393 1.09828C8.61093 2.08528 8.17693 3.55528 8.49393 4.95828C5.14293 5.19728 2.84193 3.60928 0.949931 1.43228C0.705931 1.14928 0.252931 1.29828 0.201931 1.67228C-0.078069 3.75428 -0.166069 8.81628 4.84993 11.7233C3.97893 12.9753 2.27393 13.7143 0.375931 14.0313C-0.044069 14.1023 -0.144069 14.6843 0.239931 14.8723C1.74393 15.6123 3.39693 15.9993 5.07693 15.9973" fill="#1DA1F2"/>
</svg>
